<svg xmlns="http://www.w3.org/2000/svg" xmlns:xlink="http://www.w3.org/1999/xlink" width="5125" height="250" viewBox="0 0 5125 250">
  <defs>
    <clipPath id="clip-arrow-decoration">
      <rect width="5125" height="250"/>
    </clipPath>
  </defs>
  <g id="arrow-decoration" clip-path="url(#clip-arrow-decoration)">
    <g id="Group_4" data-name="Group 4" transform="translate(0)">
      <g id="Union_6" data-name="Union 6" transform="translate(1830 4000.74)" fill="#fff">
        <path d="M -1515.73876953125 -3767.956298828125 L -1520.686157226562 -3768.511962890625 L -1560.436401367188 -3772.9765625 L -1565.398315429688 -3773.533935546875 L -1564.847778320312 -3778.49658203125 C -1563.2646484375 -3792.767822265625 -1560.18994140625 -3806.305908203125 -1555.709228515625 -3818.73486328125 C -1551.444702148438 -3830.564208984375 -1545.92626953125 -3841.288818359375 -1539.249267578125 -3850.740478515625 L -1750.000366210938 -3850.740478515625 L -1755.000366210938 -3850.740478515625 L -1755.000366210938 -3855.740478515625 L -1755.000366210938 -3895.740234375 L -1755.000366210938 -3900.740234375 L -1750.000366210938 -3900.740234375 L -1539.249755859375 -3900.740234375 C -1545.926635742188 -3910.19189453125 -1551.444946289062 -3920.916259765625 -1555.709350585938 -3932.74560546875 C -1560.18994140625 -3945.17431640625 -1563.2646484375 -3958.712646484375 -1564.847778320312 -3972.984130859375 L -1565.399047851562 -3977.95361328125 L -1560.429565429688 -3978.5048828125 L -1540.564208984375 -3980.708740234375 L -1520.69287109375 -3982.968017578125 L -1515.739501953125 -3983.53125 L -1515.161743164062 -3978.57958984375 C -1515.130981445312 -3978.315673828125 -1515.106079101562 -3977.999755859375 -1515.068359375 -3977.521240234375 C -1513.249389648438 -3954.435546875 -1501.319091796875 -3900.740234375 -1430.000366210938 -3900.740234375 L -1425.000366210938 -3900.740234375 L -1425.000366210938 -3895.740234375 L -1425.000366210938 -3855.740478515625 L -1425.000366210938 -3850.740478515625 L -1430.000366210938 -3850.740478515625 C -1501.319091796875 -3850.740478515625 -1513.249389648438 -3797.045166015625 -1515.068359375 -3773.95947265625 C -1515.106079101562 -3773.48095703125 -1515.130981445312 -3773.1650390625 -1515.161743164062 -3772.901123046875 L -1515.73876953125 -3767.956298828125 Z" stroke="none"/>
        <path d="M -1520.128051757812 -3773.480712890625 C -1519.640869140625 -3777.65576171875 -1517.203002929688 -3855.740478515625 -1430.000366210938 -3855.740478515625 L -1430.000366210938 -3895.740234375 C -1517.203002929688 -3895.740234375 -1519.640869140625 -3973.824951171875 -1520.128051757812 -3978 L -1540.000244140625 -3975.74072265625 L -1559.878295898438 -3973.535400390625 C -1557.195922851562 -3949.355712890625 -1549.175659179688 -3919.395751953125 -1529.052612304688 -3895.740234375 L -1750.000366210938 -3895.740234375 L -1750.000366210938 -3855.740478515625 L -1529.05224609375 -3855.740478515625 C -1549.17529296875 -3832.084716796875 -1557.195922851562 -3802.12451171875 -1559.878295898438 -3777.9453125 L -1520.128051757812 -3773.480712890625 M -1511.349609375 -3762.431884765625 L -1570.91845703125 -3769.122314453125 L -1569.8173828125 -3779.0478515625 C -1567.7529296875 -3797.656494140625 -1562.298217773438 -3822.74365234375 -1548.475830078125 -3845.740478515625 L -1760.000366210938 -3845.740478515625 L -1760.000366210938 -3905.740234375 L -1548.47607421875 -3905.740234375 C -1562.298461914062 -3928.73681640625 -1567.7529296875 -3953.823974609375 -1569.8173828125 -3972.432861328125 L -1570.919921875 -3982.371826171875 L -1541.102905273438 -3985.6796875 L -1511.35107421875 -3989.062255859375 L -1510.083862304688 -3977.913818359375 C -1508.3740234375 -3956.21337890625 -1497.147827148438 -3905.740234375 -1430.000366210938 -3905.740234375 L -1420.000366210938 -3905.740234375 L -1420.000366210938 -3845.740478515625 L -1430.000366210938 -3845.740478515625 C -1497.147827148438 -3845.740478515625 -1508.3740234375 -3795.267333984375 -1510.083862304688 -3773.56689453125 L -1510.195434570312 -3772.321533203125 L -1511.349609375 -3762.431884765625 Z" stroke="none" fill="#fff"/>
      </g>
      <g id="Union_5" data-name="Union 5" transform="translate(1830 4000.74)" fill="#fff">
        <path d="M -1524.6103515625 -3779.015625 L -1554.290649414062 -3782.34912109375 C -1551.421508789062 -3803.043212890625 -1543.981567382812 -3830.473388671875 -1525.243774414062 -3852.500732421875 L -1518.234497070312 -3860.740478515625 L -1529.05224609375 -3860.740478515625 L -1745.000366210938 -3860.740478515625 L -1745.000366210938 -3890.740234375 L -1529.052612304688 -3890.740234375 L -1518.23486328125 -3890.740234375 L -1525.244140625 -3898.97998046875 C -1543.979248046875 -3921.00390625 -1551.419799804688 -3948.431396484375 -1554.289672851562 -3969.124755859375 L -1539.448852539062 -3970.771240234375 L -1539.442138671875 -3970.77197265625 L -1539.435424804688 -3970.772705078125 L -1524.609497070312 -3972.458251953125 C -1521.798461914062 -3949.13916015625 -1507.453247070312 -3893.278076171875 -1435.000366210938 -3890.823974609375 L -1435.000366210938 -3860.65673828125 C -1507.458129882812 -3858.20263671875 -1521.800537109375 -3802.33203125 -1524.6103515625 -3779.015625 Z" stroke="none"/>
        <path d="M -1528.878784179688 -3784.5263671875 C -1524.626586914062 -3810.615478515625 -1507.616943359375 -3860.900146484375 -1440.000366210938 -3865.41455078125 L -1440.000366210938 -3886.066162109375 C -1507.317749023438 -3890.561279296875 -1524.476440429688 -3940.4375 -1528.847900390625 -3966.9443359375 L -1548.556762695312 -3964.730224609375 C -1545.3076171875 -3945.473388671875 -1537.920288085938 -3921.597900390625 -1521.435791015625 -3902.2197265625 L -1507.417114257812 -3885.740234375 L -1740.000366210938 -3885.740234375 L -1740.000366210938 -3865.740478515625 L -1507.4169921875 -3865.740478515625 L -1521.435424804688 -3849.260986328125 C -1537.923706054688 -3829.878173828125 -1545.310913085938 -3805.995361328125 -1548.55908203125 -3786.73681640625 L -1528.878784179688 -3784.5263671875 M -1520.128051757812 -3773.480712890625 L -1559.878295898438 -3777.9453125 C -1557.195922851562 -3802.12451171875 -1549.17529296875 -3832.084716796875 -1529.05224609375 -3855.740478515625 L -1750.000366210938 -3855.740478515625 L -1750.000366210938 -3895.740234375 L -1529.052612304688 -3895.740234375 C -1549.175659179688 -3919.395751953125 -1557.195922851562 -3949.355712890625 -1559.878295898438 -3973.535400390625 L -1540.000244140625 -3975.74072265625 L -1520.128051757812 -3978 C -1519.640869140625 -3973.824951171875 -1517.203002929688 -3895.740234375 -1430.000366210938 -3895.740234375 L -1430.000366210938 -3855.740478515625 C -1517.203002929688 -3855.740478515625 -1519.640869140625 -3777.65576171875 -1520.128051757812 -3773.480712890625 Z" stroke="none" fill="#000"/>
      </g>
    </g>
    <g id="Group_5" data-name="Group 5" transform="translate(422)">
      <g id="Union_6-2" data-name="Union 6" transform="translate(1830 4000.74)" fill="#fff">
        <path d="M -1515.73876953125 -3767.956298828125 L -1520.686157226562 -3768.511962890625 L -1560.436401367188 -3772.9765625 L -1565.398315429688 -3773.533935546875 L -1564.847778320312 -3778.49658203125 C -1563.2646484375 -3792.767822265625 -1560.18994140625 -3806.305908203125 -1555.709228515625 -3818.73486328125 C -1551.444702148438 -3830.564208984375 -1545.92626953125 -3841.288818359375 -1539.249267578125 -3850.740478515625 L -1750.000366210938 -3850.740478515625 L -1755.000366210938 -3850.740478515625 L -1755.000366210938 -3855.740478515625 L -1755.000366210938 -3895.740234375 L -1755.000366210938 -3900.740234375 L -1750.000366210938 -3900.740234375 L -1539.249755859375 -3900.740234375 C -1545.926635742188 -3910.19189453125 -1551.444946289062 -3920.916259765625 -1555.709350585938 -3932.74560546875 C -1560.18994140625 -3945.17431640625 -1563.2646484375 -3958.712646484375 -1564.847778320312 -3972.984130859375 L -1565.399047851562 -3977.95361328125 L -1560.429565429688 -3978.5048828125 L -1540.564208984375 -3980.708740234375 L -1520.69287109375 -3982.968017578125 L -1515.739501953125 -3983.53125 L -1515.161743164062 -3978.57958984375 C -1515.130981445312 -3978.315673828125 -1515.106079101562 -3977.999755859375 -1515.068359375 -3977.521240234375 C -1513.249389648438 -3954.435546875 -1501.319091796875 -3900.740234375 -1430.000366210938 -3900.740234375 L -1425.000366210938 -3900.740234375 L -1425.000366210938 -3895.740234375 L -1425.000366210938 -3855.740478515625 L -1425.000366210938 -3850.740478515625 L -1430.000366210938 -3850.740478515625 C -1501.319091796875 -3850.740478515625 -1513.249389648438 -3797.045166015625 -1515.068359375 -3773.95947265625 C -1515.106079101562 -3773.48095703125 -1515.130981445312 -3773.1650390625 -1515.161743164062 -3772.901123046875 L -1515.73876953125 -3767.956298828125 Z" stroke="none"/>
        <path d="M -1520.128051757812 -3773.480712890625 C -1519.640869140625 -3777.65576171875 -1517.203002929688 -3855.740478515625 -1430.000366210938 -3855.740478515625 L -1430.000366210938 -3895.740234375 C -1517.203002929688 -3895.740234375 -1519.640869140625 -3973.824951171875 -1520.128051757812 -3978 L -1540.000244140625 -3975.74072265625 L -1559.878295898438 -3973.535400390625 C -1557.195922851562 -3949.355712890625 -1549.175659179688 -3919.395751953125 -1529.052612304688 -3895.740234375 L -1750.000366210938 -3895.740234375 L -1750.000366210938 -3855.740478515625 L -1529.05224609375 -3855.740478515625 C -1549.17529296875 -3832.084716796875 -1557.195922851562 -3802.12451171875 -1559.878295898438 -3777.9453125 L -1520.128051757812 -3773.480712890625 M -1511.349609375 -3762.431884765625 L -1570.91845703125 -3769.122314453125 L -1569.8173828125 -3779.0478515625 C -1567.7529296875 -3797.656494140625 -1562.298217773438 -3822.74365234375 -1548.475830078125 -3845.740478515625 L -1760.000366210938 -3845.740478515625 L -1760.000366210938 -3905.740234375 L -1548.47607421875 -3905.740234375 C -1562.298461914062 -3928.73681640625 -1567.7529296875 -3953.823974609375 -1569.8173828125 -3972.432861328125 L -1570.919921875 -3982.371826171875 L -1541.102905273438 -3985.6796875 L -1511.35107421875 -3989.062255859375 L -1510.083862304688 -3977.913818359375 C -1508.3740234375 -3956.21337890625 -1497.147827148438 -3905.740234375 -1430.000366210938 -3905.740234375 L -1420.000366210938 -3905.740234375 L -1420.000366210938 -3845.740478515625 L -1430.000366210938 -3845.740478515625 C -1497.147827148438 -3845.740478515625 -1508.3740234375 -3795.267333984375 -1510.083862304688 -3773.56689453125 L -1510.195434570312 -3772.321533203125 L -1511.349609375 -3762.431884765625 Z" stroke="none" fill="#fff"/>
      </g>
      <g id="Union_5-2" data-name="Union 5" transform="translate(1830 4000.74)" fill="#fff">
        <path d="M -1524.6103515625 -3779.015625 L -1554.290649414062 -3782.34912109375 C -1551.421508789062 -3803.043212890625 -1543.981567382812 -3830.473388671875 -1525.243774414062 -3852.500732421875 L -1518.234497070312 -3860.740478515625 L -1529.05224609375 -3860.740478515625 L -1745.000366210938 -3860.740478515625 L -1745.000366210938 -3890.740234375 L -1529.052612304688 -3890.740234375 L -1518.23486328125 -3890.740234375 L -1525.244140625 -3898.97998046875 C -1543.979248046875 -3921.00390625 -1551.419799804688 -3948.431396484375 -1554.289672851562 -3969.124755859375 L -1539.448852539062 -3970.771240234375 L -1539.442138671875 -3970.77197265625 L -1539.435424804688 -3970.772705078125 L -1524.609497070312 -3972.458251953125 C -1521.798461914062 -3949.13916015625 -1507.453247070312 -3893.278076171875 -1435.000366210938 -3890.823974609375 L -1435.000366210938 -3860.65673828125 C -1507.458129882812 -3858.20263671875 -1521.800537109375 -3802.33203125 -1524.6103515625 -3779.015625 Z" stroke="none"/>
        <path d="M -1528.878784179688 -3784.5263671875 C -1524.626586914062 -3810.615478515625 -1507.616943359375 -3860.900146484375 -1440.000366210938 -3865.41455078125 L -1440.000366210938 -3886.066162109375 C -1507.317749023438 -3890.561279296875 -1524.476440429688 -3940.4375 -1528.847900390625 -3966.9443359375 L -1548.556762695312 -3964.730224609375 C -1545.3076171875 -3945.473388671875 -1537.920288085938 -3921.597900390625 -1521.435791015625 -3902.2197265625 L -1507.417114257812 -3885.740234375 L -1740.000366210938 -3885.740234375 L -1740.000366210938 -3865.740478515625 L -1507.4169921875 -3865.740478515625 L -1521.435424804688 -3849.260986328125 C -1537.923706054688 -3829.878173828125 -1545.310913085938 -3805.995361328125 -1548.55908203125 -3786.73681640625 L -1528.878784179688 -3784.5263671875 M -1520.128051757812 -3773.480712890625 L -1559.878295898438 -3777.9453125 C -1557.195922851562 -3802.12451171875 -1549.17529296875 -3832.084716796875 -1529.05224609375 -3855.740478515625 L -1750.000366210938 -3855.740478515625 L -1750.000366210938 -3895.740234375 L -1529.052612304688 -3895.740234375 C -1549.175659179688 -3919.395751953125 -1557.195922851562 -3949.355712890625 -1559.878295898438 -3973.535400390625 L -1540.000244140625 -3975.74072265625 L -1520.128051757812 -3978 C -1519.640869140625 -3973.824951171875 -1517.203002929688 -3895.740234375 -1430.000366210938 -3895.740234375 L -1430.000366210938 -3855.740478515625 C -1517.203002929688 -3855.740478515625 -1519.640869140625 -3777.65576171875 -1520.128051757812 -3773.480712890625 Z" stroke="none" fill="#000"/>
      </g>
    </g>
    <g id="Group_6" data-name="Group 6" transform="translate(1267)">
      <g id="Union_6-3" data-name="Union 6" transform="translate(1830 4000.74)" fill="#fff">
        <path d="M -1515.73876953125 -3767.956298828125 L -1520.686157226562 -3768.511962890625 L -1560.436401367188 -3772.9765625 L -1565.398315429688 -3773.533935546875 L -1564.847778320312 -3778.49658203125 C -1563.2646484375 -3792.767822265625 -1560.18994140625 -3806.305908203125 -1555.709228515625 -3818.73486328125 C -1551.444702148438 -3830.564208984375 -1545.92626953125 -3841.288818359375 -1539.249267578125 -3850.740478515625 L -1750.000366210938 -3850.740478515625 L -1755.000366210938 -3850.740478515625 L -1755.000366210938 -3855.740478515625 L -1755.000366210938 -3895.740234375 L -1755.000366210938 -3900.740234375 L -1750.000366210938 -3900.740234375 L -1539.249755859375 -3900.740234375 C -1545.926635742188 -3910.19189453125 -1551.444946289062 -3920.916259765625 -1555.709350585938 -3932.74560546875 C -1560.18994140625 -3945.17431640625 -1563.2646484375 -3958.712646484375 -1564.847778320312 -3972.984130859375 L -1565.399047851562 -3977.95361328125 L -1560.429565429688 -3978.5048828125 L -1540.564208984375 -3980.708740234375 L -1520.69287109375 -3982.968017578125 L -1515.739501953125 -3983.53125 L -1515.161743164062 -3978.57958984375 C -1515.130981445312 -3978.315673828125 -1515.106079101562 -3977.999755859375 -1515.068359375 -3977.521240234375 C -1513.249389648438 -3954.435546875 -1501.319091796875 -3900.740234375 -1430.000366210938 -3900.740234375 L -1425.000366210938 -3900.740234375 L -1425.000366210938 -3895.740234375 L -1425.000366210938 -3855.740478515625 L -1425.000366210938 -3850.740478515625 L -1430.000366210938 -3850.740478515625 C -1501.319091796875 -3850.740478515625 -1513.249389648438 -3797.045166015625 -1515.068359375 -3773.95947265625 C -1515.106079101562 -3773.48095703125 -1515.130981445312 -3773.1650390625 -1515.161743164062 -3772.901123046875 L -1515.73876953125 -3767.956298828125 Z" stroke="none"/>
        <path d="M -1520.128051757812 -3773.480712890625 C -1519.640869140625 -3777.65576171875 -1517.203002929688 -3855.740478515625 -1430.000366210938 -3855.740478515625 L -1430.000366210938 -3895.740234375 C -1517.203002929688 -3895.740234375 -1519.640869140625 -3973.824951171875 -1520.128051757812 -3978 L -1540.000244140625 -3975.74072265625 L -1559.878295898438 -3973.535400390625 C -1557.195922851562 -3949.355712890625 -1549.175659179688 -3919.395751953125 -1529.052612304688 -3895.740234375 L -1750.000366210938 -3895.740234375 L -1750.000366210938 -3855.740478515625 L -1529.05224609375 -3855.740478515625 C -1549.17529296875 -3832.084716796875 -1557.195922851562 -3802.12451171875 -1559.878295898438 -3777.9453125 L -1520.128051757812 -3773.480712890625 M -1511.349609375 -3762.431884765625 L -1570.91845703125 -3769.122314453125 L -1569.8173828125 -3779.0478515625 C -1567.7529296875 -3797.656494140625 -1562.298217773438 -3822.74365234375 -1548.475830078125 -3845.740478515625 L -1760.000366210938 -3845.740478515625 L -1760.000366210938 -3905.740234375 L -1548.47607421875 -3905.740234375 C -1562.298461914062 -3928.73681640625 -1567.7529296875 -3953.823974609375 -1569.8173828125 -3972.432861328125 L -1570.919921875 -3982.371826171875 L -1541.102905273438 -3985.6796875 L -1511.35107421875 -3989.062255859375 L -1510.083862304688 -3977.913818359375 C -1508.3740234375 -3956.21337890625 -1497.147827148438 -3905.740234375 -1430.000366210938 -3905.740234375 L -1420.000366210938 -3905.740234375 L -1420.000366210938 -3845.740478515625 L -1430.000366210938 -3845.740478515625 C -1497.147827148438 -3845.740478515625 -1508.3740234375 -3795.267333984375 -1510.083862304688 -3773.56689453125 L -1510.195434570312 -3772.321533203125 L -1511.349609375 -3762.431884765625 Z" stroke="none" fill="#fff"/>
      </g>
      <g id="Union_5-3" data-name="Union 5" transform="translate(1830 4000.74)" fill="#fff">
        <path d="M -1524.6103515625 -3779.015625 L -1554.290649414062 -3782.34912109375 C -1551.421508789062 -3803.043212890625 -1543.981567382812 -3830.473388671875 -1525.243774414062 -3852.500732421875 L -1518.234497070312 -3860.740478515625 L -1529.05224609375 -3860.740478515625 L -1745.000366210938 -3860.740478515625 L -1745.000366210938 -3890.740234375 L -1529.052612304688 -3890.740234375 L -1518.23486328125 -3890.740234375 L -1525.244140625 -3898.97998046875 C -1543.979248046875 -3921.00390625 -1551.419799804688 -3948.431396484375 -1554.289672851562 -3969.124755859375 L -1539.448852539062 -3970.771240234375 L -1539.442138671875 -3970.77197265625 L -1539.435424804688 -3970.772705078125 L -1524.609497070312 -3972.458251953125 C -1521.798461914062 -3949.13916015625 -1507.453247070312 -3893.278076171875 -1435.000366210938 -3890.823974609375 L -1435.000366210938 -3860.65673828125 C -1507.458129882812 -3858.20263671875 -1521.800537109375 -3802.33203125 -1524.6103515625 -3779.015625 Z" stroke="none"/>
        <path d="M -1528.878784179688 -3784.5263671875 C -1524.626586914062 -3810.615478515625 -1507.616943359375 -3860.900146484375 -1440.000366210938 -3865.41455078125 L -1440.000366210938 -3886.066162109375 C -1507.317749023438 -3890.561279296875 -1524.476440429688 -3940.4375 -1528.847900390625 -3966.9443359375 L -1548.556762695312 -3964.730224609375 C -1545.3076171875 -3945.473388671875 -1537.920288085938 -3921.597900390625 -1521.435791015625 -3902.2197265625 L -1507.417114257812 -3885.740234375 L -1740.000366210938 -3885.740234375 L -1740.000366210938 -3865.740478515625 L -1507.4169921875 -3865.740478515625 L -1521.435424804688 -3849.260986328125 C -1537.923706054688 -3829.878173828125 -1545.310913085938 -3805.995361328125 -1548.55908203125 -3786.73681640625 L -1528.878784179688 -3784.5263671875 M -1520.128051757812 -3773.480712890625 L -1559.878295898438 -3777.9453125 C -1557.195922851562 -3802.12451171875 -1549.17529296875 -3832.084716796875 -1529.05224609375 -3855.740478515625 L -1750.000366210938 -3855.740478515625 L -1750.000366210938 -3895.740234375 L -1529.052612304688 -3895.740234375 C -1549.175659179688 -3919.395751953125 -1557.195922851562 -3949.355712890625 -1559.878295898438 -3973.535400390625 L -1540.000244140625 -3975.74072265625 L -1520.128051757812 -3978 C -1519.640869140625 -3973.824951171875 -1517.203002929688 -3895.740234375 -1430.000366210938 -3895.740234375 L -1430.000366210938 -3855.740478515625 C -1517.203002929688 -3855.740478515625 -1519.640869140625 -3777.65576171875 -1520.128051757812 -3773.480712890625 Z" stroke="none" fill="#000"/>
      </g>
    </g>
    <g id="Group_15" data-name="Group 15" transform="translate(845)">
      <g id="Union_6-4" data-name="Union 6" transform="translate(1830 4000.74)" fill="#fff">
        <path d="M -1515.73876953125 -3767.956298828125 L -1520.686157226562 -3768.511962890625 L -1560.436401367188 -3772.9765625 L -1565.398315429688 -3773.533935546875 L -1564.847778320312 -3778.49658203125 C -1563.2646484375 -3792.767822265625 -1560.18994140625 -3806.305908203125 -1555.709228515625 -3818.73486328125 C -1551.444702148438 -3830.564208984375 -1545.92626953125 -3841.288818359375 -1539.249267578125 -3850.740478515625 L -1750.000366210938 -3850.740478515625 L -1755.000366210938 -3850.740478515625 L -1755.000366210938 -3855.740478515625 L -1755.000366210938 -3895.740234375 L -1755.000366210938 -3900.740234375 L -1750.000366210938 -3900.740234375 L -1539.249755859375 -3900.740234375 C -1545.926635742188 -3910.19189453125 -1551.444946289062 -3920.916259765625 -1555.709350585938 -3932.74560546875 C -1560.18994140625 -3945.17431640625 -1563.2646484375 -3958.712646484375 -1564.847778320312 -3972.984130859375 L -1565.399047851562 -3977.95361328125 L -1560.429565429688 -3978.5048828125 L -1540.564208984375 -3980.708740234375 L -1520.69287109375 -3982.968017578125 L -1515.739501953125 -3983.53125 L -1515.161743164062 -3978.57958984375 C -1515.130981445312 -3978.315673828125 -1515.106079101562 -3977.999755859375 -1515.068359375 -3977.521240234375 C -1513.249389648438 -3954.435546875 -1501.319091796875 -3900.740234375 -1430.000366210938 -3900.740234375 L -1425.000366210938 -3900.740234375 L -1425.000366210938 -3895.740234375 L -1425.000366210938 -3855.740478515625 L -1425.000366210938 -3850.740478515625 L -1430.000366210938 -3850.740478515625 C -1501.319091796875 -3850.740478515625 -1513.249389648438 -3797.045166015625 -1515.068359375 -3773.95947265625 C -1515.106079101562 -3773.48095703125 -1515.130981445312 -3773.1650390625 -1515.161743164062 -3772.901123046875 L -1515.73876953125 -3767.956298828125 Z" stroke="none"/>
        <path d="M -1520.128051757812 -3773.480712890625 C -1519.640869140625 -3777.65576171875 -1517.203002929688 -3855.740478515625 -1430.000366210938 -3855.740478515625 L -1430.000366210938 -3895.740234375 C -1517.203002929688 -3895.740234375 -1519.640869140625 -3973.824951171875 -1520.128051757812 -3978 L -1540.000244140625 -3975.74072265625 L -1559.878295898438 -3973.535400390625 C -1557.195922851562 -3949.355712890625 -1549.175659179688 -3919.395751953125 -1529.052612304688 -3895.740234375 L -1750.000366210938 -3895.740234375 L -1750.000366210938 -3855.740478515625 L -1529.05224609375 -3855.740478515625 C -1549.17529296875 -3832.084716796875 -1557.195922851562 -3802.12451171875 -1559.878295898438 -3777.9453125 L -1520.128051757812 -3773.480712890625 M -1511.349609375 -3762.431884765625 L -1570.91845703125 -3769.122314453125 L -1569.8173828125 -3779.0478515625 C -1567.7529296875 -3797.656494140625 -1562.298217773438 -3822.74365234375 -1548.475830078125 -3845.740478515625 L -1760.000366210938 -3845.740478515625 L -1760.000366210938 -3905.740234375 L -1548.47607421875 -3905.740234375 C -1562.298461914062 -3928.73681640625 -1567.7529296875 -3953.823974609375 -1569.8173828125 -3972.432861328125 L -1570.919921875 -3982.371826171875 L -1541.102905273438 -3985.6796875 L -1511.35107421875 -3989.062255859375 L -1510.083862304688 -3977.913818359375 C -1508.3740234375 -3956.21337890625 -1497.147827148438 -3905.740234375 -1430.000366210938 -3905.740234375 L -1420.000366210938 -3905.740234375 L -1420.000366210938 -3845.740478515625 L -1430.000366210938 -3845.740478515625 C -1497.147827148438 -3845.740478515625 -1508.3740234375 -3795.267333984375 -1510.083862304688 -3773.56689453125 L -1510.195434570312 -3772.321533203125 L -1511.349609375 -3762.431884765625 Z" stroke="none" fill="#fff"/>
      </g>
      <g id="Union_5-4" data-name="Union 5" transform="translate(1830 4000.74)" fill="#fff">
        <path d="M -1524.6103515625 -3779.015625 L -1554.290649414062 -3782.34912109375 C -1551.421508789062 -3803.043212890625 -1543.981567382812 -3830.473388671875 -1525.243774414062 -3852.500732421875 L -1518.234497070312 -3860.740478515625 L -1529.05224609375 -3860.740478515625 L -1745.000366210938 -3860.740478515625 L -1745.000366210938 -3890.740234375 L -1529.052612304688 -3890.740234375 L -1518.23486328125 -3890.740234375 L -1525.244140625 -3898.97998046875 C -1543.979248046875 -3921.00390625 -1551.419799804688 -3948.431396484375 -1554.289672851562 -3969.124755859375 L -1539.448852539062 -3970.771240234375 L -1539.442138671875 -3970.77197265625 L -1539.435424804688 -3970.772705078125 L -1524.609497070312 -3972.458251953125 C -1521.798461914062 -3949.13916015625 -1507.453247070312 -3893.278076171875 -1435.000366210938 -3890.823974609375 L -1435.000366210938 -3860.65673828125 C -1507.458129882812 -3858.20263671875 -1521.800537109375 -3802.33203125 -1524.6103515625 -3779.015625 Z" stroke="none"/>
        <path d="M -1528.878784179688 -3784.5263671875 C -1524.626586914062 -3810.615478515625 -1507.616943359375 -3860.900146484375 -1440.000366210938 -3865.41455078125 L -1440.000366210938 -3886.066162109375 C -1507.317749023438 -3890.561279296875 -1524.476440429688 -3940.4375 -1528.847900390625 -3966.9443359375 L -1548.556762695312 -3964.730224609375 C -1545.3076171875 -3945.473388671875 -1537.920288085938 -3921.597900390625 -1521.435791015625 -3902.2197265625 L -1507.417114257812 -3885.740234375 L -1740.000366210938 -3885.740234375 L -1740.000366210938 -3865.740478515625 L -1507.4169921875 -3865.740478515625 L -1521.435424804688 -3849.260986328125 C -1537.923706054688 -3829.878173828125 -1545.310913085938 -3805.995361328125 -1548.55908203125 -3786.73681640625 L -1528.878784179688 -3784.5263671875 M -1520.128051757812 -3773.480712890625 L -1559.878295898438 -3777.9453125 C -1557.195922851562 -3802.12451171875 -1549.17529296875 -3832.084716796875 -1529.05224609375 -3855.740478515625 L -1750.000366210938 -3855.740478515625 L -1750.000366210938 -3895.740234375 L -1529.052612304688 -3895.740234375 C -1549.175659179688 -3919.395751953125 -1557.195922851562 -3949.355712890625 -1559.878295898438 -3973.535400390625 L -1540.000244140625 -3975.74072265625 L -1520.128051757812 -3978 C -1519.640869140625 -3973.824951171875 -1517.203002929688 -3895.740234375 -1430.000366210938 -3895.740234375 L -1430.000366210938 -3855.740478515625 C -1517.203002929688 -3855.740478515625 -1519.640869140625 -3777.65576171875 -1520.128051757812 -3773.480712890625 Z" stroke="none" fill="#000"/>
      </g>
    </g>
    <g id="Group_7" data-name="Group 7" transform="translate(1689)">
      <g id="Union_6-5" data-name="Union 6" transform="translate(1830 4000.74)" fill="#fff">
        <path d="M -1515.73876953125 -3767.956298828125 L -1520.686157226562 -3768.511962890625 L -1560.436401367188 -3772.9765625 L -1565.398315429688 -3773.533935546875 L -1564.847778320312 -3778.49658203125 C -1563.2646484375 -3792.767822265625 -1560.18994140625 -3806.305908203125 -1555.709228515625 -3818.73486328125 C -1551.444702148438 -3830.564208984375 -1545.92626953125 -3841.288818359375 -1539.249267578125 -3850.740478515625 L -1750.000366210938 -3850.740478515625 L -1755.000366210938 -3850.740478515625 L -1755.000366210938 -3855.740478515625 L -1755.000366210938 -3895.740234375 L -1755.000366210938 -3900.740234375 L -1750.000366210938 -3900.740234375 L -1539.249755859375 -3900.740234375 C -1545.926635742188 -3910.19189453125 -1551.444946289062 -3920.916259765625 -1555.709350585938 -3932.74560546875 C -1560.18994140625 -3945.17431640625 -1563.2646484375 -3958.712646484375 -1564.847778320312 -3972.984130859375 L -1565.399047851562 -3977.95361328125 L -1560.429565429688 -3978.5048828125 L -1540.564208984375 -3980.708740234375 L -1520.69287109375 -3982.968017578125 L -1515.739501953125 -3983.53125 L -1515.161743164062 -3978.57958984375 C -1515.130981445312 -3978.315673828125 -1515.106079101562 -3977.999755859375 -1515.068359375 -3977.521240234375 C -1513.249389648438 -3954.435546875 -1501.319091796875 -3900.740234375 -1430.000366210938 -3900.740234375 L -1425.000366210938 -3900.740234375 L -1425.000366210938 -3895.740234375 L -1425.000366210938 -3855.740478515625 L -1425.000366210938 -3850.740478515625 L -1430.000366210938 -3850.740478515625 C -1501.319091796875 -3850.740478515625 -1513.249389648438 -3797.045166015625 -1515.068359375 -3773.95947265625 C -1515.106079101562 -3773.48095703125 -1515.130981445312 -3773.1650390625 -1515.161743164062 -3772.901123046875 L -1515.73876953125 -3767.956298828125 Z" stroke="none"/>
        <path d="M -1520.128051757812 -3773.480712890625 C -1519.640869140625 -3777.65576171875 -1517.203002929688 -3855.740478515625 -1430.000366210938 -3855.740478515625 L -1430.000366210938 -3895.740234375 C -1517.203002929688 -3895.740234375 -1519.640869140625 -3973.824951171875 -1520.128051757812 -3978 L -1540.000244140625 -3975.74072265625 L -1559.878295898438 -3973.535400390625 C -1557.195922851562 -3949.355712890625 -1549.175659179688 -3919.395751953125 -1529.052612304688 -3895.740234375 L -1750.000366210938 -3895.740234375 L -1750.000366210938 -3855.740478515625 L -1529.05224609375 -3855.740478515625 C -1549.17529296875 -3832.084716796875 -1557.195922851562 -3802.12451171875 -1559.878295898438 -3777.9453125 L -1520.128051757812 -3773.480712890625 M -1511.349609375 -3762.431884765625 L -1570.91845703125 -3769.122314453125 L -1569.8173828125 -3779.0478515625 C -1567.7529296875 -3797.656494140625 -1562.298217773438 -3822.74365234375 -1548.475830078125 -3845.740478515625 L -1760.000366210938 -3845.740478515625 L -1760.000366210938 -3905.740234375 L -1548.47607421875 -3905.740234375 C -1562.298461914062 -3928.73681640625 -1567.7529296875 -3953.823974609375 -1569.8173828125 -3972.432861328125 L -1570.919921875 -3982.371826171875 L -1541.102905273438 -3985.6796875 L -1511.35107421875 -3989.062255859375 L -1510.083862304688 -3977.913818359375 C -1508.3740234375 -3956.21337890625 -1497.147827148438 -3905.740234375 -1430.000366210938 -3905.740234375 L -1420.000366210938 -3905.740234375 L -1420.000366210938 -3845.740478515625 L -1430.000366210938 -3845.740478515625 C -1497.147827148438 -3845.740478515625 -1508.3740234375 -3795.267333984375 -1510.083862304688 -3773.56689453125 L -1510.195434570312 -3772.321533203125 L -1511.349609375 -3762.431884765625 Z" stroke="none" fill="#fff"/>
      </g>
      <g id="Union_5-5" data-name="Union 5" transform="translate(1830 4000.74)" fill="#fff">
        <path d="M -1524.6103515625 -3779.015625 L -1554.290649414062 -3782.34912109375 C -1551.421508789062 -3803.043212890625 -1543.981567382812 -3830.473388671875 -1525.243774414062 -3852.500732421875 L -1518.234497070312 -3860.740478515625 L -1529.05224609375 -3860.740478515625 L -1745.000366210938 -3860.740478515625 L -1745.000366210938 -3890.740234375 L -1529.052612304688 -3890.740234375 L -1518.23486328125 -3890.740234375 L -1525.244140625 -3898.97998046875 C -1543.979248046875 -3921.00390625 -1551.419799804688 -3948.431396484375 -1554.289672851562 -3969.124755859375 L -1539.448852539062 -3970.771240234375 L -1539.442138671875 -3970.77197265625 L -1539.435424804688 -3970.772705078125 L -1524.609497070312 -3972.458251953125 C -1521.798461914062 -3949.13916015625 -1507.453247070312 -3893.278076171875 -1435.000366210938 -3890.823974609375 L -1435.000366210938 -3860.65673828125 C -1507.458129882812 -3858.20263671875 -1521.800537109375 -3802.33203125 -1524.6103515625 -3779.015625 Z" stroke="none"/>
        <path d="M -1528.878784179688 -3784.5263671875 C -1524.626586914062 -3810.615478515625 -1507.616943359375 -3860.900146484375 -1440.000366210938 -3865.41455078125 L -1440.000366210938 -3886.066162109375 C -1507.317749023438 -3890.561279296875 -1524.476440429688 -3940.4375 -1528.847900390625 -3966.9443359375 L -1548.556762695312 -3964.730224609375 C -1545.3076171875 -3945.473388671875 -1537.920288085938 -3921.597900390625 -1521.435791015625 -3902.2197265625 L -1507.417114257812 -3885.740234375 L -1740.000366210938 -3885.740234375 L -1740.000366210938 -3865.740478515625 L -1507.4169921875 -3865.740478515625 L -1521.435424804688 -3849.260986328125 C -1537.923706054688 -3829.878173828125 -1545.310913085938 -3805.995361328125 -1548.55908203125 -3786.73681640625 L -1528.878784179688 -3784.5263671875 M -1520.128051757812 -3773.480712890625 L -1559.878295898438 -3777.9453125 C -1557.195922851562 -3802.12451171875 -1549.17529296875 -3832.084716796875 -1529.05224609375 -3855.740478515625 L -1750.000366210938 -3855.740478515625 L -1750.000366210938 -3895.740234375 L -1529.052612304688 -3895.740234375 C -1549.175659179688 -3919.395751953125 -1557.195922851562 -3949.355712890625 -1559.878295898438 -3973.535400390625 L -1540.000244140625 -3975.74072265625 L -1520.128051757812 -3978 C -1519.640869140625 -3973.824951171875 -1517.203002929688 -3895.740234375 -1430.000366210938 -3895.740234375 L -1430.000366210938 -3855.740478515625 C -1517.203002929688 -3855.740478515625 -1519.640869140625 -3777.65576171875 -1520.128051757812 -3773.480712890625 Z" stroke="none" fill="#000"/>
      </g>
    </g>
    <g id="Group_8" data-name="Group 8" transform="translate(2111)">
      <g id="Union_6-6" data-name="Union 6" transform="translate(1830 4000.74)" fill="#fff">
        <path d="M -1515.73876953125 -3767.956298828125 L -1520.686157226562 -3768.511962890625 L -1560.436401367188 -3772.9765625 L -1565.398315429688 -3773.533935546875 L -1564.847778320312 -3778.49658203125 C -1563.2646484375 -3792.767822265625 -1560.18994140625 -3806.305908203125 -1555.709228515625 -3818.73486328125 C -1551.444702148438 -3830.564208984375 -1545.92626953125 -3841.288818359375 -1539.249267578125 -3850.740478515625 L -1750.000366210938 -3850.740478515625 L -1755.000366210938 -3850.740478515625 L -1755.000366210938 -3855.740478515625 L -1755.000366210938 -3895.740234375 L -1755.000366210938 -3900.740234375 L -1750.000366210938 -3900.740234375 L -1539.249755859375 -3900.740234375 C -1545.926635742188 -3910.19189453125 -1551.444946289062 -3920.916259765625 -1555.709350585938 -3932.74560546875 C -1560.18994140625 -3945.17431640625 -1563.2646484375 -3958.712646484375 -1564.847778320312 -3972.984130859375 L -1565.399047851562 -3977.95361328125 L -1560.429565429688 -3978.5048828125 L -1540.564208984375 -3980.708740234375 L -1520.69287109375 -3982.968017578125 L -1515.739501953125 -3983.53125 L -1515.161743164062 -3978.57958984375 C -1515.130981445312 -3978.315673828125 -1515.106079101562 -3977.999755859375 -1515.068359375 -3977.521240234375 C -1513.249389648438 -3954.435546875 -1501.319091796875 -3900.740234375 -1430.000366210938 -3900.740234375 L -1425.000366210938 -3900.740234375 L -1425.000366210938 -3895.740234375 L -1425.000366210938 -3855.740478515625 L -1425.000366210938 -3850.740478515625 L -1430.000366210938 -3850.740478515625 C -1501.319091796875 -3850.740478515625 -1513.249389648438 -3797.045166015625 -1515.068359375 -3773.95947265625 C -1515.106079101562 -3773.48095703125 -1515.130981445312 -3773.1650390625 -1515.161743164062 -3772.901123046875 L -1515.73876953125 -3767.956298828125 Z" stroke="none"/>
        <path d="M -1520.128051757812 -3773.480712890625 C -1519.640869140625 -3777.65576171875 -1517.203002929688 -3855.740478515625 -1430.000366210938 -3855.740478515625 L -1430.000366210938 -3895.740234375 C -1517.203002929688 -3895.740234375 -1519.640869140625 -3973.824951171875 -1520.128051757812 -3978 L -1540.000244140625 -3975.74072265625 L -1559.878295898438 -3973.535400390625 C -1557.195922851562 -3949.355712890625 -1549.175659179688 -3919.395751953125 -1529.052612304688 -3895.740234375 L -1750.000366210938 -3895.740234375 L -1750.000366210938 -3855.740478515625 L -1529.05224609375 -3855.740478515625 C -1549.17529296875 -3832.084716796875 -1557.195922851562 -3802.12451171875 -1559.878295898438 -3777.9453125 L -1520.128051757812 -3773.480712890625 M -1511.349609375 -3762.431884765625 L -1570.91845703125 -3769.122314453125 L -1569.8173828125 -3779.0478515625 C -1567.7529296875 -3797.656494140625 -1562.298217773438 -3822.74365234375 -1548.475830078125 -3845.740478515625 L -1760.000366210938 -3845.740478515625 L -1760.000366210938 -3905.740234375 L -1548.47607421875 -3905.740234375 C -1562.298461914062 -3928.73681640625 -1567.7529296875 -3953.823974609375 -1569.8173828125 -3972.432861328125 L -1570.919921875 -3982.371826171875 L -1541.102905273438 -3985.6796875 L -1511.35107421875 -3989.062255859375 L -1510.083862304688 -3977.913818359375 C -1508.3740234375 -3956.21337890625 -1497.147827148438 -3905.740234375 -1430.000366210938 -3905.740234375 L -1420.000366210938 -3905.740234375 L -1420.000366210938 -3845.740478515625 L -1430.000366210938 -3845.740478515625 C -1497.147827148438 -3845.740478515625 -1508.3740234375 -3795.267333984375 -1510.083862304688 -3773.56689453125 L -1510.195434570312 -3772.321533203125 L -1511.349609375 -3762.431884765625 Z" stroke="none" fill="#fff"/>
      </g>
      <g id="Union_5-6" data-name="Union 5" transform="translate(1830 4000.74)" fill="#fff">
        <path d="M -1524.6103515625 -3779.015625 L -1554.290649414062 -3782.34912109375 C -1551.421508789062 -3803.043212890625 -1543.981567382812 -3830.473388671875 -1525.243774414062 -3852.500732421875 L -1518.234497070312 -3860.740478515625 L -1529.05224609375 -3860.740478515625 L -1745.000366210938 -3860.740478515625 L -1745.000366210938 -3890.740234375 L -1529.052612304688 -3890.740234375 L -1518.23486328125 -3890.740234375 L -1525.244140625 -3898.97998046875 C -1543.979248046875 -3921.00390625 -1551.419799804688 -3948.431396484375 -1554.289672851562 -3969.124755859375 L -1539.448852539062 -3970.771240234375 L -1539.442138671875 -3970.77197265625 L -1539.435424804688 -3970.772705078125 L -1524.609497070312 -3972.458251953125 C -1521.798461914062 -3949.13916015625 -1507.453247070312 -3893.278076171875 -1435.000366210938 -3890.823974609375 L -1435.000366210938 -3860.65673828125 C -1507.458129882812 -3858.20263671875 -1521.800537109375 -3802.33203125 -1524.6103515625 -3779.015625 Z" stroke="none"/>
        <path d="M -1528.878784179688 -3784.5263671875 C -1524.626586914062 -3810.615478515625 -1507.616943359375 -3860.900146484375 -1440.000366210938 -3865.41455078125 L -1440.000366210938 -3886.066162109375 C -1507.317749023438 -3890.561279296875 -1524.476440429688 -3940.4375 -1528.847900390625 -3966.9443359375 L -1548.556762695312 -3964.730224609375 C -1545.3076171875 -3945.473388671875 -1537.920288085938 -3921.597900390625 -1521.435791015625 -3902.2197265625 L -1507.417114257812 -3885.740234375 L -1740.000366210938 -3885.740234375 L -1740.000366210938 -3865.740478515625 L -1507.4169921875 -3865.740478515625 L -1521.435424804688 -3849.260986328125 C -1537.923706054688 -3829.878173828125 -1545.310913085938 -3805.995361328125 -1548.55908203125 -3786.73681640625 L -1528.878784179688 -3784.5263671875 M -1520.128051757812 -3773.480712890625 L -1559.878295898438 -3777.9453125 C -1557.195922851562 -3802.12451171875 -1549.17529296875 -3832.084716796875 -1529.05224609375 -3855.740478515625 L -1750.000366210938 -3855.740478515625 L -1750.000366210938 -3895.740234375 L -1529.052612304688 -3895.740234375 C -1549.175659179688 -3919.395751953125 -1557.195922851562 -3949.355712890625 -1559.878295898438 -3973.535400390625 L -1540.000244140625 -3975.74072265625 L -1520.128051757812 -3978 C -1519.640869140625 -3973.824951171875 -1517.203002929688 -3895.740234375 -1430.000366210938 -3895.740234375 L -1430.000366210938 -3855.740478515625 C -1517.203002929688 -3855.740478515625 -1519.640869140625 -3777.65576171875 -1520.128051757812 -3773.480712890625 Z" stroke="none" fill="#000"/>
      </g>
    </g>
    <g id="Group_9" data-name="Group 9" transform="translate(2534)">
      <g id="Union_6-7" data-name="Union 6" transform="translate(1830 4000.74)" fill="#fff">
        <path d="M -1515.73876953125 -3767.956298828125 L -1520.686157226562 -3768.511962890625 L -1560.436401367188 -3772.9765625 L -1565.398315429688 -3773.533935546875 L -1564.847778320312 -3778.49658203125 C -1563.2646484375 -3792.767822265625 -1560.18994140625 -3806.305908203125 -1555.709228515625 -3818.73486328125 C -1551.444702148438 -3830.564208984375 -1545.92626953125 -3841.288818359375 -1539.249267578125 -3850.740478515625 L -1750.000366210938 -3850.740478515625 L -1755.000366210938 -3850.740478515625 L -1755.000366210938 -3855.740478515625 L -1755.000366210938 -3895.740234375 L -1755.000366210938 -3900.740234375 L -1750.000366210938 -3900.740234375 L -1539.249755859375 -3900.740234375 C -1545.926635742188 -3910.19189453125 -1551.444946289062 -3920.916259765625 -1555.709350585938 -3932.74560546875 C -1560.18994140625 -3945.17431640625 -1563.2646484375 -3958.712646484375 -1564.847778320312 -3972.984130859375 L -1565.399047851562 -3977.95361328125 L -1560.429565429688 -3978.5048828125 L -1540.564208984375 -3980.708740234375 L -1520.69287109375 -3982.968017578125 L -1515.739501953125 -3983.53125 L -1515.161743164062 -3978.57958984375 C -1515.130981445312 -3978.315673828125 -1515.106079101562 -3977.999755859375 -1515.068359375 -3977.521240234375 C -1513.249389648438 -3954.435546875 -1501.319091796875 -3900.740234375 -1430.000366210938 -3900.740234375 L -1425.000366210938 -3900.740234375 L -1425.000366210938 -3895.740234375 L -1425.000366210938 -3855.740478515625 L -1425.000366210938 -3850.740478515625 L -1430.000366210938 -3850.740478515625 C -1501.319091796875 -3850.740478515625 -1513.249389648438 -3797.045166015625 -1515.068359375 -3773.95947265625 C -1515.106079101562 -3773.48095703125 -1515.130981445312 -3773.1650390625 -1515.161743164062 -3772.901123046875 L -1515.73876953125 -3767.956298828125 Z" stroke="none"/>
        <path d="M -1520.128051757812 -3773.480712890625 C -1519.640869140625 -3777.65576171875 -1517.203002929688 -3855.740478515625 -1430.000366210938 -3855.740478515625 L -1430.000366210938 -3895.740234375 C -1517.203002929688 -3895.740234375 -1519.640869140625 -3973.824951171875 -1520.128051757812 -3978 L -1540.000244140625 -3975.74072265625 L -1559.878295898438 -3973.535400390625 C -1557.195922851562 -3949.355712890625 -1549.175659179688 -3919.395751953125 -1529.052612304688 -3895.740234375 L -1750.000366210938 -3895.740234375 L -1750.000366210938 -3855.740478515625 L -1529.05224609375 -3855.740478515625 C -1549.17529296875 -3832.084716796875 -1557.195922851562 -3802.12451171875 -1559.878295898438 -3777.9453125 L -1520.128051757812 -3773.480712890625 M -1511.349609375 -3762.431884765625 L -1570.91845703125 -3769.122314453125 L -1569.8173828125 -3779.0478515625 C -1567.7529296875 -3797.656494140625 -1562.298217773438 -3822.74365234375 -1548.475830078125 -3845.740478515625 L -1760.000366210938 -3845.740478515625 L -1760.000366210938 -3905.740234375 L -1548.47607421875 -3905.740234375 C -1562.298461914062 -3928.73681640625 -1567.7529296875 -3953.823974609375 -1569.8173828125 -3972.432861328125 L -1570.919921875 -3982.371826171875 L -1541.102905273438 -3985.6796875 L -1511.35107421875 -3989.062255859375 L -1510.083862304688 -3977.913818359375 C -1508.3740234375 -3956.21337890625 -1497.147827148438 -3905.740234375 -1430.000366210938 -3905.740234375 L -1420.000366210938 -3905.740234375 L -1420.000366210938 -3845.740478515625 L -1430.000366210938 -3845.740478515625 C -1497.147827148438 -3845.740478515625 -1508.3740234375 -3795.267333984375 -1510.083862304688 -3773.56689453125 L -1510.195434570312 -3772.321533203125 L -1511.349609375 -3762.431884765625 Z" stroke="none" fill="#fff"/>
      </g>
      <g id="Union_5-7" data-name="Union 5" transform="translate(1830 4000.74)" fill="#fff">
        <path d="M -1524.6103515625 -3779.015625 L -1554.290649414062 -3782.34912109375 C -1551.421508789062 -3803.043212890625 -1543.981567382812 -3830.473388671875 -1525.243774414062 -3852.500732421875 L -1518.234497070312 -3860.740478515625 L -1529.05224609375 -3860.740478515625 L -1745.000366210938 -3860.740478515625 L -1745.000366210938 -3890.740234375 L -1529.052612304688 -3890.740234375 L -1518.23486328125 -3890.740234375 L -1525.244140625 -3898.97998046875 C -1543.979248046875 -3921.00390625 -1551.419799804688 -3948.431396484375 -1554.289672851562 -3969.124755859375 L -1539.448852539062 -3970.771240234375 L -1539.442138671875 -3970.77197265625 L -1539.435424804688 -3970.772705078125 L -1524.609497070312 -3972.458251953125 C -1521.798461914062 -3949.13916015625 -1507.453247070312 -3893.278076171875 -1435.000366210938 -3890.823974609375 L -1435.000366210938 -3860.65673828125 C -1507.458129882812 -3858.20263671875 -1521.800537109375 -3802.33203125 -1524.6103515625 -3779.015625 Z" stroke="none"/>
        <path d="M -1528.878784179688 -3784.5263671875 C -1524.626586914062 -3810.615478515625 -1507.616943359375 -3860.900146484375 -1440.000366210938 -3865.41455078125 L -1440.000366210938 -3886.066162109375 C -1507.317749023438 -3890.561279296875 -1524.476440429688 -3940.4375 -1528.847900390625 -3966.9443359375 L -1548.556762695312 -3964.730224609375 C -1545.3076171875 -3945.473388671875 -1537.920288085938 -3921.597900390625 -1521.435791015625 -3902.2197265625 L -1507.417114257812 -3885.740234375 L -1740.000366210938 -3885.740234375 L -1740.000366210938 -3865.740478515625 L -1507.4169921875 -3865.740478515625 L -1521.435424804688 -3849.260986328125 C -1537.923706054688 -3829.878173828125 -1545.310913085938 -3805.995361328125 -1548.55908203125 -3786.73681640625 L -1528.878784179688 -3784.5263671875 M -1520.128051757812 -3773.480712890625 L -1559.878295898438 -3777.9453125 C -1557.195922851562 -3802.12451171875 -1549.17529296875 -3832.084716796875 -1529.05224609375 -3855.740478515625 L -1750.000366210938 -3855.740478515625 L -1750.000366210938 -3895.740234375 L -1529.052612304688 -3895.740234375 C -1549.175659179688 -3919.395751953125 -1557.195922851562 -3949.355712890625 -1559.878295898438 -3973.535400390625 L -1540.000244140625 -3975.74072265625 L -1520.128051757812 -3978 C -1519.640869140625 -3973.824951171875 -1517.203002929688 -3895.740234375 -1430.000366210938 -3895.740234375 L -1430.000366210938 -3855.740478515625 C -1517.203002929688 -3855.740478515625 -1519.640869140625 -3777.65576171875 -1520.128051757812 -3773.480712890625 Z" stroke="none" fill="#000"/>
      </g>
    </g>
    <g id="Group_10" data-name="Group 10" transform="translate(2956)">
      <g id="Union_6-8" data-name="Union 6" transform="translate(1830 4000.74)" fill="#fff">
        <path d="M -1515.73876953125 -3767.956298828125 L -1520.686157226562 -3768.511962890625 L -1560.436401367188 -3772.9765625 L -1565.398315429688 -3773.533935546875 L -1564.847778320312 -3778.49658203125 C -1563.2646484375 -3792.767822265625 -1560.18994140625 -3806.305908203125 -1555.709228515625 -3818.73486328125 C -1551.444702148438 -3830.564208984375 -1545.92626953125 -3841.288818359375 -1539.249267578125 -3850.740478515625 L -1750.000366210938 -3850.740478515625 L -1755.000366210938 -3850.740478515625 L -1755.000366210938 -3855.740478515625 L -1755.000366210938 -3895.740234375 L -1755.000366210938 -3900.740234375 L -1750.000366210938 -3900.740234375 L -1539.249755859375 -3900.740234375 C -1545.926635742188 -3910.19189453125 -1551.444946289062 -3920.916259765625 -1555.709350585938 -3932.74560546875 C -1560.18994140625 -3945.17431640625 -1563.2646484375 -3958.712646484375 -1564.847778320312 -3972.984130859375 L -1565.399047851562 -3977.95361328125 L -1560.429565429688 -3978.5048828125 L -1540.564208984375 -3980.708740234375 L -1520.69287109375 -3982.968017578125 L -1515.739501953125 -3983.53125 L -1515.161743164062 -3978.57958984375 C -1515.130981445312 -3978.315673828125 -1515.106079101562 -3977.999755859375 -1515.068359375 -3977.521240234375 C -1513.249389648438 -3954.435546875 -1501.319091796875 -3900.740234375 -1430.000366210938 -3900.740234375 L -1425.000366210938 -3900.740234375 L -1425.000366210938 -3895.740234375 L -1425.000366210938 -3855.740478515625 L -1425.000366210938 -3850.740478515625 L -1430.000366210938 -3850.740478515625 C -1501.319091796875 -3850.740478515625 -1513.249389648438 -3797.045166015625 -1515.068359375 -3773.95947265625 C -1515.106079101562 -3773.48095703125 -1515.130981445312 -3773.1650390625 -1515.161743164062 -3772.901123046875 L -1515.73876953125 -3767.956298828125 Z" stroke="none"/>
        <path d="M -1520.128051757812 -3773.480712890625 C -1519.640869140625 -3777.65576171875 -1517.203002929688 -3855.740478515625 -1430.000366210938 -3855.740478515625 L -1430.000366210938 -3895.740234375 C -1517.203002929688 -3895.740234375 -1519.640869140625 -3973.824951171875 -1520.128051757812 -3978 L -1540.000244140625 -3975.74072265625 L -1559.878295898438 -3973.535400390625 C -1557.195922851562 -3949.355712890625 -1549.175659179688 -3919.395751953125 -1529.052612304688 -3895.740234375 L -1750.000366210938 -3895.740234375 L -1750.000366210938 -3855.740478515625 L -1529.05224609375 -3855.740478515625 C -1549.17529296875 -3832.084716796875 -1557.195922851562 -3802.12451171875 -1559.878295898438 -3777.9453125 L -1520.128051757812 -3773.480712890625 M -1511.349609375 -3762.431884765625 L -1570.91845703125 -3769.122314453125 L -1569.8173828125 -3779.0478515625 C -1567.7529296875 -3797.656494140625 -1562.298217773438 -3822.74365234375 -1548.475830078125 -3845.740478515625 L -1760.000366210938 -3845.740478515625 L -1760.000366210938 -3905.740234375 L -1548.47607421875 -3905.740234375 C -1562.298461914062 -3928.73681640625 -1567.7529296875 -3953.823974609375 -1569.8173828125 -3972.432861328125 L -1570.919921875 -3982.371826171875 L -1541.102905273438 -3985.6796875 L -1511.35107421875 -3989.062255859375 L -1510.083862304688 -3977.913818359375 C -1508.3740234375 -3956.21337890625 -1497.147827148438 -3905.740234375 -1430.000366210938 -3905.740234375 L -1420.000366210938 -3905.740234375 L -1420.000366210938 -3845.740478515625 L -1430.000366210938 -3845.740478515625 C -1497.147827148438 -3845.740478515625 -1508.3740234375 -3795.267333984375 -1510.083862304688 -3773.56689453125 L -1510.195434570312 -3772.321533203125 L -1511.349609375 -3762.431884765625 Z" stroke="none" fill="#fff"/>
      </g>
      <g id="Union_5-8" data-name="Union 5" transform="translate(1830 4000.74)" fill="#fff">
        <path d="M -1524.6103515625 -3779.015625 L -1554.290649414062 -3782.34912109375 C -1551.421508789062 -3803.043212890625 -1543.981567382812 -3830.473388671875 -1525.243774414062 -3852.500732421875 L -1518.234497070312 -3860.740478515625 L -1529.05224609375 -3860.740478515625 L -1745.000366210938 -3860.740478515625 L -1745.000366210938 -3890.740234375 L -1529.052612304688 -3890.740234375 L -1518.23486328125 -3890.740234375 L -1525.244140625 -3898.97998046875 C -1543.979248046875 -3921.00390625 -1551.419799804688 -3948.431396484375 -1554.289672851562 -3969.124755859375 L -1539.448852539062 -3970.771240234375 L -1539.442138671875 -3970.77197265625 L -1539.435424804688 -3970.772705078125 L -1524.609497070312 -3972.458251953125 C -1521.798461914062 -3949.13916015625 -1507.453247070312 -3893.278076171875 -1435.000366210938 -3890.823974609375 L -1435.000366210938 -3860.65673828125 C -1507.458129882812 -3858.20263671875 -1521.800537109375 -3802.33203125 -1524.6103515625 -3779.015625 Z" stroke="none"/>
        <path d="M -1528.878784179688 -3784.5263671875 C -1524.626586914062 -3810.615478515625 -1507.616943359375 -3860.900146484375 -1440.000366210938 -3865.41455078125 L -1440.000366210938 -3886.066162109375 C -1507.317749023438 -3890.561279296875 -1524.476440429688 -3940.4375 -1528.847900390625 -3966.9443359375 L -1548.556762695312 -3964.730224609375 C -1545.3076171875 -3945.473388671875 -1537.920288085938 -3921.597900390625 -1521.435791015625 -3902.2197265625 L -1507.417114257812 -3885.740234375 L -1740.000366210938 -3885.740234375 L -1740.000366210938 -3865.740478515625 L -1507.4169921875 -3865.740478515625 L -1521.435424804688 -3849.260986328125 C -1537.923706054688 -3829.878173828125 -1545.310913085938 -3805.995361328125 -1548.55908203125 -3786.73681640625 L -1528.878784179688 -3784.5263671875 M -1520.128051757812 -3773.480712890625 L -1559.878295898438 -3777.9453125 C -1557.195922851562 -3802.12451171875 -1549.17529296875 -3832.084716796875 -1529.05224609375 -3855.740478515625 L -1750.000366210938 -3855.740478515625 L -1750.000366210938 -3895.740234375 L -1529.052612304688 -3895.740234375 C -1549.175659179688 -3919.395751953125 -1557.195922851562 -3949.355712890625 -1559.878295898438 -3973.535400390625 L -1540.000244140625 -3975.74072265625 L -1520.128051757812 -3978 C -1519.640869140625 -3973.824951171875 -1517.203002929688 -3895.740234375 -1430.000366210938 -3895.740234375 L -1430.000366210938 -3855.740478515625 C -1517.203002929688 -3855.740478515625 -1519.640869140625 -3777.65576171875 -1520.128051757812 -3773.480712890625 Z" stroke="none" fill="#000"/>
      </g>
    </g>
    <g id="Group_11" data-name="Group 11" transform="translate(3378)">
      <g id="Union_6-9" data-name="Union 6" transform="translate(1830 4000.74)" fill="#fff">
        <path d="M -1515.73876953125 -3767.956298828125 L -1520.686157226562 -3768.511962890625 L -1560.436401367188 -3772.9765625 L -1565.398315429688 -3773.533935546875 L -1564.847778320312 -3778.49658203125 C -1563.2646484375 -3792.767822265625 -1560.18994140625 -3806.305908203125 -1555.709228515625 -3818.73486328125 C -1551.444702148438 -3830.564208984375 -1545.92626953125 -3841.288818359375 -1539.249267578125 -3850.740478515625 L -1750.000366210938 -3850.740478515625 L -1755.000366210938 -3850.740478515625 L -1755.000366210938 -3855.740478515625 L -1755.000366210938 -3895.740234375 L -1755.000366210938 -3900.740234375 L -1750.000366210938 -3900.740234375 L -1539.249755859375 -3900.740234375 C -1545.926635742188 -3910.19189453125 -1551.444946289062 -3920.916259765625 -1555.709350585938 -3932.74560546875 C -1560.18994140625 -3945.17431640625 -1563.2646484375 -3958.712646484375 -1564.847778320312 -3972.984130859375 L -1565.399047851562 -3977.95361328125 L -1560.429565429688 -3978.5048828125 L -1540.564208984375 -3980.708740234375 L -1520.69287109375 -3982.968017578125 L -1515.739501953125 -3983.53125 L -1515.161743164062 -3978.57958984375 C -1515.130981445312 -3978.315673828125 -1515.106079101562 -3977.999755859375 -1515.068359375 -3977.521240234375 C -1513.249389648438 -3954.435546875 -1501.319091796875 -3900.740234375 -1430.000366210938 -3900.740234375 L -1425.000366210938 -3900.740234375 L -1425.000366210938 -3895.740234375 L -1425.000366210938 -3855.740478515625 L -1425.000366210938 -3850.740478515625 L -1430.000366210938 -3850.740478515625 C -1501.319091796875 -3850.740478515625 -1513.249389648438 -3797.045166015625 -1515.068359375 -3773.95947265625 C -1515.106079101562 -3773.48095703125 -1515.130981445312 -3773.1650390625 -1515.161743164062 -3772.901123046875 L -1515.73876953125 -3767.956298828125 Z" stroke="none"/>
        <path d="M -1520.128051757812 -3773.480712890625 C -1519.640869140625 -3777.65576171875 -1517.203002929688 -3855.740478515625 -1430.000366210938 -3855.740478515625 L -1430.000366210938 -3895.740234375 C -1517.203002929688 -3895.740234375 -1519.640869140625 -3973.824951171875 -1520.128051757812 -3978 L -1540.000244140625 -3975.74072265625 L -1559.878295898438 -3973.535400390625 C -1557.195922851562 -3949.355712890625 -1549.175659179688 -3919.395751953125 -1529.052612304688 -3895.740234375 L -1750.000366210938 -3895.740234375 L -1750.000366210938 -3855.740478515625 L -1529.05224609375 -3855.740478515625 C -1549.17529296875 -3832.084716796875 -1557.195922851562 -3802.12451171875 -1559.878295898438 -3777.9453125 L -1520.128051757812 -3773.480712890625 M -1511.349609375 -3762.431884765625 L -1570.91845703125 -3769.122314453125 L -1569.8173828125 -3779.0478515625 C -1567.7529296875 -3797.656494140625 -1562.298217773438 -3822.74365234375 -1548.475830078125 -3845.740478515625 L -1760.000366210938 -3845.740478515625 L -1760.000366210938 -3905.740234375 L -1548.47607421875 -3905.740234375 C -1562.298461914062 -3928.73681640625 -1567.7529296875 -3953.823974609375 -1569.8173828125 -3972.432861328125 L -1570.919921875 -3982.371826171875 L -1541.102905273438 -3985.6796875 L -1511.35107421875 -3989.062255859375 L -1510.083862304688 -3977.913818359375 C -1508.3740234375 -3956.21337890625 -1497.147827148438 -3905.740234375 -1430.000366210938 -3905.740234375 L -1420.000366210938 -3905.740234375 L -1420.000366210938 -3845.740478515625 L -1430.000366210938 -3845.740478515625 C -1497.147827148438 -3845.740478515625 -1508.3740234375 -3795.267333984375 -1510.083862304688 -3773.56689453125 L -1510.195434570312 -3772.321533203125 L -1511.349609375 -3762.431884765625 Z" stroke="none" fill="#fff"/>
      </g>
      <g id="Union_5-9" data-name="Union 5" transform="translate(1830 4000.74)" fill="#fff">
        <path d="M -1524.6103515625 -3779.015625 L -1554.290649414062 -3782.34912109375 C -1551.421508789062 -3803.043212890625 -1543.981567382812 -3830.473388671875 -1525.243774414062 -3852.500732421875 L -1518.234497070312 -3860.740478515625 L -1529.05224609375 -3860.740478515625 L -1745.000366210938 -3860.740478515625 L -1745.000366210938 -3890.740234375 L -1529.052612304688 -3890.740234375 L -1518.23486328125 -3890.740234375 L -1525.244140625 -3898.97998046875 C -1543.979248046875 -3921.00390625 -1551.419799804688 -3948.431396484375 -1554.289672851562 -3969.124755859375 L -1539.448852539062 -3970.771240234375 L -1539.442138671875 -3970.77197265625 L -1539.435424804688 -3970.772705078125 L -1524.609497070312 -3972.458251953125 C -1521.798461914062 -3949.13916015625 -1507.453247070312 -3893.278076171875 -1435.000366210938 -3890.823974609375 L -1435.000366210938 -3860.65673828125 C -1507.458129882812 -3858.20263671875 -1521.800537109375 -3802.33203125 -1524.6103515625 -3779.015625 Z" stroke="none"/>
        <path d="M -1528.878784179688 -3784.5263671875 C -1524.626586914062 -3810.615478515625 -1507.616943359375 -3860.900146484375 -1440.000366210938 -3865.41455078125 L -1440.000366210938 -3886.066162109375 C -1507.317749023438 -3890.561279296875 -1524.476440429688 -3940.4375 -1528.847900390625 -3966.9443359375 L -1548.556762695312 -3964.730224609375 C -1545.3076171875 -3945.473388671875 -1537.920288085938 -3921.597900390625 -1521.435791015625 -3902.2197265625 L -1507.417114257812 -3885.740234375 L -1740.000366210938 -3885.740234375 L -1740.000366210938 -3865.740478515625 L -1507.4169921875 -3865.740478515625 L -1521.435424804688 -3849.260986328125 C -1537.923706054688 -3829.878173828125 -1545.310913085938 -3805.995361328125 -1548.55908203125 -3786.73681640625 L -1528.878784179688 -3784.5263671875 M -1520.128051757812 -3773.480712890625 L -1559.878295898438 -3777.9453125 C -1557.195922851562 -3802.12451171875 -1549.17529296875 -3832.084716796875 -1529.05224609375 -3855.740478515625 L -1750.000366210938 -3855.740478515625 L -1750.000366210938 -3895.740234375 L -1529.052612304688 -3895.740234375 C -1549.175659179688 -3919.395751953125 -1557.195922851562 -3949.355712890625 -1559.878295898438 -3973.535400390625 L -1540.000244140625 -3975.74072265625 L -1520.128051757812 -3978 C -1519.640869140625 -3973.824951171875 -1517.203002929688 -3895.740234375 -1430.000366210938 -3895.740234375 L -1430.000366210938 -3855.740478515625 C -1517.203002929688 -3855.740478515625 -1519.640869140625 -3777.65576171875 -1520.128051757812 -3773.480712890625 Z" stroke="none" fill="#000"/>
      </g>
    </g>
    <g id="Group_12" data-name="Group 12" transform="translate(3800)">
      <g id="Union_6-10" data-name="Union 6" transform="translate(1830 4000.74)" fill="#fff">
        <path d="M -1515.73876953125 -3767.956298828125 L -1520.686157226562 -3768.511962890625 L -1560.436401367188 -3772.9765625 L -1565.398315429688 -3773.533935546875 L -1564.847778320312 -3778.49658203125 C -1563.2646484375 -3792.767822265625 -1560.18994140625 -3806.305908203125 -1555.709228515625 -3818.73486328125 C -1551.444702148438 -3830.564208984375 -1545.92626953125 -3841.288818359375 -1539.249267578125 -3850.740478515625 L -1750.000366210938 -3850.740478515625 L -1755.000366210938 -3850.740478515625 L -1755.000366210938 -3855.740478515625 L -1755.000366210938 -3895.740234375 L -1755.000366210938 -3900.740234375 L -1750.000366210938 -3900.740234375 L -1539.249755859375 -3900.740234375 C -1545.926635742188 -3910.19189453125 -1551.444946289062 -3920.916259765625 -1555.709350585938 -3932.74560546875 C -1560.18994140625 -3945.17431640625 -1563.2646484375 -3958.712646484375 -1564.847778320312 -3972.984130859375 L -1565.399047851562 -3977.95361328125 L -1560.429565429688 -3978.5048828125 L -1540.564208984375 -3980.708740234375 L -1520.69287109375 -3982.968017578125 L -1515.739501953125 -3983.53125 L -1515.161743164062 -3978.57958984375 C -1515.130981445312 -3978.315673828125 -1515.106079101562 -3977.999755859375 -1515.068359375 -3977.521240234375 C -1513.249389648438 -3954.435546875 -1501.319091796875 -3900.740234375 -1430.000366210938 -3900.740234375 L -1425.000366210938 -3900.740234375 L -1425.000366210938 -3895.740234375 L -1425.000366210938 -3855.740478515625 L -1425.000366210938 -3850.740478515625 L -1430.000366210938 -3850.740478515625 C -1501.319091796875 -3850.740478515625 -1513.249389648438 -3797.045166015625 -1515.068359375 -3773.95947265625 C -1515.106079101562 -3773.48095703125 -1515.130981445312 -3773.1650390625 -1515.161743164062 -3772.901123046875 L -1515.73876953125 -3767.956298828125 Z" stroke="none"/>
        <path d="M -1520.128051757812 -3773.480712890625 C -1519.640869140625 -3777.65576171875 -1517.203002929688 -3855.740478515625 -1430.000366210938 -3855.740478515625 L -1430.000366210938 -3895.740234375 C -1517.203002929688 -3895.740234375 -1519.640869140625 -3973.824951171875 -1520.128051757812 -3978 L -1540.000244140625 -3975.74072265625 L -1559.878295898438 -3973.535400390625 C -1557.195922851562 -3949.355712890625 -1549.175659179688 -3919.395751953125 -1529.052612304688 -3895.740234375 L -1750.000366210938 -3895.740234375 L -1750.000366210938 -3855.740478515625 L -1529.05224609375 -3855.740478515625 C -1549.17529296875 -3832.084716796875 -1557.195922851562 -3802.12451171875 -1559.878295898438 -3777.9453125 L -1520.128051757812 -3773.480712890625 M -1511.349609375 -3762.431884765625 L -1570.91845703125 -3769.122314453125 L -1569.8173828125 -3779.0478515625 C -1567.7529296875 -3797.656494140625 -1562.298217773438 -3822.74365234375 -1548.475830078125 -3845.740478515625 L -1760.000366210938 -3845.740478515625 L -1760.000366210938 -3905.740234375 L -1548.47607421875 -3905.740234375 C -1562.298461914062 -3928.73681640625 -1567.7529296875 -3953.823974609375 -1569.8173828125 -3972.432861328125 L -1570.919921875 -3982.371826171875 L -1541.102905273438 -3985.6796875 L -1511.35107421875 -3989.062255859375 L -1510.083862304688 -3977.913818359375 C -1508.3740234375 -3956.21337890625 -1497.147827148438 -3905.740234375 -1430.000366210938 -3905.740234375 L -1420.000366210938 -3905.740234375 L -1420.000366210938 -3845.740478515625 L -1430.000366210938 -3845.740478515625 C -1497.147827148438 -3845.740478515625 -1508.3740234375 -3795.267333984375 -1510.083862304688 -3773.56689453125 L -1510.195434570312 -3772.321533203125 L -1511.349609375 -3762.431884765625 Z" stroke="none" fill="#fff"/>
      </g>
      <g id="Union_5-10" data-name="Union 5" transform="translate(1830 4000.74)" fill="#fff">
        <path d="M -1524.6103515625 -3779.015625 L -1554.290649414062 -3782.34912109375 C -1551.421508789062 -3803.043212890625 -1543.981567382812 -3830.473388671875 -1525.243774414062 -3852.500732421875 L -1518.234497070312 -3860.740478515625 L -1529.05224609375 -3860.740478515625 L -1745.000366210938 -3860.740478515625 L -1745.000366210938 -3890.740234375 L -1529.052612304688 -3890.740234375 L -1518.23486328125 -3890.740234375 L -1525.244140625 -3898.97998046875 C -1543.979248046875 -3921.00390625 -1551.419799804688 -3948.431396484375 -1554.289672851562 -3969.124755859375 L -1539.448852539062 -3970.771240234375 L -1539.442138671875 -3970.77197265625 L -1539.435424804688 -3970.772705078125 L -1524.609497070312 -3972.458251953125 C -1521.798461914062 -3949.13916015625 -1507.453247070312 -3893.278076171875 -1435.000366210938 -3890.823974609375 L -1435.000366210938 -3860.65673828125 C -1507.458129882812 -3858.20263671875 -1521.800537109375 -3802.33203125 -1524.6103515625 -3779.015625 Z" stroke="none"/>
        <path d="M -1528.878784179688 -3784.5263671875 C -1524.626586914062 -3810.615478515625 -1507.616943359375 -3860.900146484375 -1440.000366210938 -3865.41455078125 L -1440.000366210938 -3886.066162109375 C -1507.317749023438 -3890.561279296875 -1524.476440429688 -3940.4375 -1528.847900390625 -3966.9443359375 L -1548.556762695312 -3964.730224609375 C -1545.3076171875 -3945.473388671875 -1537.920288085938 -3921.597900390625 -1521.435791015625 -3902.2197265625 L -1507.417114257812 -3885.740234375 L -1740.000366210938 -3885.740234375 L -1740.000366210938 -3865.740478515625 L -1507.4169921875 -3865.740478515625 L -1521.435424804688 -3849.260986328125 C -1537.923706054688 -3829.878173828125 -1545.310913085938 -3805.995361328125 -1548.55908203125 -3786.73681640625 L -1528.878784179688 -3784.5263671875 M -1520.128051757812 -3773.480712890625 L -1559.878295898438 -3777.9453125 C -1557.195922851562 -3802.12451171875 -1549.17529296875 -3832.084716796875 -1529.05224609375 -3855.740478515625 L -1750.000366210938 -3855.740478515625 L -1750.000366210938 -3895.740234375 L -1529.052612304688 -3895.740234375 C -1549.175659179688 -3919.395751953125 -1557.195922851562 -3949.355712890625 -1559.878295898438 -3973.535400390625 L -1540.000244140625 -3975.74072265625 L -1520.128051757812 -3978 C -1519.640869140625 -3973.824951171875 -1517.203002929688 -3895.740234375 -1430.000366210938 -3895.740234375 L -1430.000366210938 -3855.740478515625 C -1517.203002929688 -3855.740478515625 -1519.640869140625 -3777.65576171875 -1520.128051757812 -3773.480712890625 Z" stroke="none" fill="#000"/>
      </g>
    </g>
    <g id="Group_13" data-name="Group 13" transform="translate(4223)">
      <g id="Union_6-11" data-name="Union 6" transform="translate(1830 4000.74)" fill="#fff">
        <path d="M -1515.73876953125 -3767.956298828125 L -1520.686157226562 -3768.511962890625 L -1560.436401367188 -3772.9765625 L -1565.398315429688 -3773.533935546875 L -1564.847778320312 -3778.49658203125 C -1563.2646484375 -3792.767822265625 -1560.18994140625 -3806.305908203125 -1555.709228515625 -3818.73486328125 C -1551.444702148438 -3830.564208984375 -1545.92626953125 -3841.288818359375 -1539.249267578125 -3850.740478515625 L -1750.000366210938 -3850.740478515625 L -1755.000366210938 -3850.740478515625 L -1755.000366210938 -3855.740478515625 L -1755.000366210938 -3895.740234375 L -1755.000366210938 -3900.740234375 L -1750.000366210938 -3900.740234375 L -1539.249755859375 -3900.740234375 C -1545.926635742188 -3910.19189453125 -1551.444946289062 -3920.916259765625 -1555.709350585938 -3932.74560546875 C -1560.18994140625 -3945.17431640625 -1563.2646484375 -3958.712646484375 -1564.847778320312 -3972.984130859375 L -1565.399047851562 -3977.95361328125 L -1560.429565429688 -3978.5048828125 L -1540.564208984375 -3980.708740234375 L -1520.69287109375 -3982.968017578125 L -1515.739501953125 -3983.53125 L -1515.161743164062 -3978.57958984375 C -1515.130981445312 -3978.315673828125 -1515.106079101562 -3977.999755859375 -1515.068359375 -3977.521240234375 C -1513.249389648438 -3954.435546875 -1501.319091796875 -3900.740234375 -1430.000366210938 -3900.740234375 L -1425.000366210938 -3900.740234375 L -1425.000366210938 -3895.740234375 L -1425.000366210938 -3855.740478515625 L -1425.000366210938 -3850.740478515625 L -1430.000366210938 -3850.740478515625 C -1501.319091796875 -3850.740478515625 -1513.249389648438 -3797.045166015625 -1515.068359375 -3773.95947265625 C -1515.106079101562 -3773.48095703125 -1515.130981445312 -3773.1650390625 -1515.161743164062 -3772.901123046875 L -1515.73876953125 -3767.956298828125 Z" stroke="none"/>
        <path d="M -1520.128051757812 -3773.480712890625 C -1519.640869140625 -3777.65576171875 -1517.203002929688 -3855.740478515625 -1430.000366210938 -3855.740478515625 L -1430.000366210938 -3895.740234375 C -1517.203002929688 -3895.740234375 -1519.640869140625 -3973.824951171875 -1520.128051757812 -3978 L -1540.000244140625 -3975.74072265625 L -1559.878295898438 -3973.535400390625 C -1557.195922851562 -3949.355712890625 -1549.175659179688 -3919.395751953125 -1529.052612304688 -3895.740234375 L -1750.000366210938 -3895.740234375 L -1750.000366210938 -3855.740478515625 L -1529.05224609375 -3855.740478515625 C -1549.17529296875 -3832.084716796875 -1557.195922851562 -3802.12451171875 -1559.878295898438 -3777.9453125 L -1520.128051757812 -3773.480712890625 M -1511.349609375 -3762.431884765625 L -1570.91845703125 -3769.122314453125 L -1569.8173828125 -3779.0478515625 C -1567.7529296875 -3797.656494140625 -1562.298217773438 -3822.74365234375 -1548.475830078125 -3845.740478515625 L -1760.000366210938 -3845.740478515625 L -1760.000366210938 -3905.740234375 L -1548.47607421875 -3905.740234375 C -1562.298461914062 -3928.73681640625 -1567.7529296875 -3953.823974609375 -1569.8173828125 -3972.432861328125 L -1570.919921875 -3982.371826171875 L -1541.102905273438 -3985.6796875 L -1511.35107421875 -3989.062255859375 L -1510.083862304688 -3977.913818359375 C -1508.3740234375 -3956.21337890625 -1497.147827148438 -3905.740234375 -1430.000366210938 -3905.740234375 L -1420.000366210938 -3905.740234375 L -1420.000366210938 -3845.740478515625 L -1430.000366210938 -3845.740478515625 C -1497.147827148438 -3845.740478515625 -1508.3740234375 -3795.267333984375 -1510.083862304688 -3773.56689453125 L -1510.195434570312 -3772.321533203125 L -1511.349609375 -3762.431884765625 Z" stroke="none" fill="#fff"/>
      </g>
      <g id="Union_5-11" data-name="Union 5" transform="translate(1830 4000.74)" fill="#fff">
        <path d="M -1524.6103515625 -3779.015625 L -1554.290649414062 -3782.34912109375 C -1551.421508789062 -3803.043212890625 -1543.981567382812 -3830.473388671875 -1525.243774414062 -3852.500732421875 L -1518.234497070312 -3860.740478515625 L -1529.05224609375 -3860.740478515625 L -1745.000366210938 -3860.740478515625 L -1745.000366210938 -3890.740234375 L -1529.052612304688 -3890.740234375 L -1518.23486328125 -3890.740234375 L -1525.244140625 -3898.97998046875 C -1543.979248046875 -3921.00390625 -1551.419799804688 -3948.431396484375 -1554.289672851562 -3969.124755859375 L -1539.448852539062 -3970.771240234375 L -1539.442138671875 -3970.77197265625 L -1539.435424804688 -3970.772705078125 L -1524.609497070312 -3972.458251953125 C -1521.798461914062 -3949.13916015625 -1507.453247070312 -3893.278076171875 -1435.000366210938 -3890.823974609375 L -1435.000366210938 -3860.65673828125 C -1507.458129882812 -3858.20263671875 -1521.800537109375 -3802.33203125 -1524.6103515625 -3779.015625 Z" stroke="none"/>
        <path d="M -1528.878784179688 -3784.5263671875 C -1524.626586914062 -3810.615478515625 -1507.616943359375 -3860.900146484375 -1440.000366210938 -3865.41455078125 L -1440.000366210938 -3886.066162109375 C -1507.317749023438 -3890.561279296875 -1524.476440429688 -3940.4375 -1528.847900390625 -3966.9443359375 L -1548.556762695312 -3964.730224609375 C -1545.3076171875 -3945.473388671875 -1537.920288085938 -3921.597900390625 -1521.435791015625 -3902.2197265625 L -1507.417114257812 -3885.740234375 L -1740.000366210938 -3885.740234375 L -1740.000366210938 -3865.740478515625 L -1507.4169921875 -3865.740478515625 L -1521.435424804688 -3849.260986328125 C -1537.923706054688 -3829.878173828125 -1545.310913085938 -3805.995361328125 -1548.55908203125 -3786.73681640625 L -1528.878784179688 -3784.5263671875 M -1520.128051757812 -3773.480712890625 L -1559.878295898438 -3777.9453125 C -1557.195922851562 -3802.12451171875 -1549.17529296875 -3832.084716796875 -1529.05224609375 -3855.740478515625 L -1750.000366210938 -3855.740478515625 L -1750.000366210938 -3895.740234375 L -1529.052612304688 -3895.740234375 C -1549.175659179688 -3919.395751953125 -1557.195922851562 -3949.355712890625 -1559.878295898438 -3973.535400390625 L -1540.000244140625 -3975.74072265625 L -1520.128051757812 -3978 C -1519.640869140625 -3973.824951171875 -1517.203002929688 -3895.740234375 -1430.000366210938 -3895.740234375 L -1430.000366210938 -3855.740478515625 C -1517.203002929688 -3855.740478515625 -1519.640869140625 -3777.65576171875 -1520.128051757812 -3773.480712890625 Z" stroke="none" fill="#000"/>
      </g>
    </g>
    <g id="Group_14" data-name="Group 14" transform="translate(4645)">
      <g id="Union_6-12" data-name="Union 6" transform="translate(1830 4000.74)" fill="#fff">
        <path d="M -1515.73876953125 -3767.956298828125 L -1520.686157226562 -3768.511962890625 L -1560.436401367188 -3772.9765625 L -1565.398315429688 -3773.533935546875 L -1564.847778320312 -3778.49658203125 C -1563.2646484375 -3792.767822265625 -1560.18994140625 -3806.305908203125 -1555.709228515625 -3818.73486328125 C -1551.444702148438 -3830.564208984375 -1545.92626953125 -3841.288818359375 -1539.249267578125 -3850.740478515625 L -1750.000366210938 -3850.740478515625 L -1755.000366210938 -3850.740478515625 L -1755.000366210938 -3855.740478515625 L -1755.000366210938 -3895.740234375 L -1755.000366210938 -3900.740234375 L -1750.000366210938 -3900.740234375 L -1539.249755859375 -3900.740234375 C -1545.926635742188 -3910.19189453125 -1551.444946289062 -3920.916259765625 -1555.709350585938 -3932.74560546875 C -1560.18994140625 -3945.17431640625 -1563.2646484375 -3958.712646484375 -1564.847778320312 -3972.984130859375 L -1565.399047851562 -3977.95361328125 L -1560.429565429688 -3978.5048828125 L -1540.564208984375 -3980.708740234375 L -1520.69287109375 -3982.968017578125 L -1515.739501953125 -3983.53125 L -1515.161743164062 -3978.57958984375 C -1515.130981445312 -3978.315673828125 -1515.106079101562 -3977.999755859375 -1515.068359375 -3977.521240234375 C -1513.249389648438 -3954.435546875 -1501.319091796875 -3900.740234375 -1430.000366210938 -3900.740234375 L -1425.000366210938 -3900.740234375 L -1425.000366210938 -3895.740234375 L -1425.000366210938 -3855.740478515625 L -1425.000366210938 -3850.740478515625 L -1430.000366210938 -3850.740478515625 C -1501.319091796875 -3850.740478515625 -1513.249389648438 -3797.045166015625 -1515.068359375 -3773.95947265625 C -1515.106079101562 -3773.48095703125 -1515.130981445312 -3773.1650390625 -1515.161743164062 -3772.901123046875 L -1515.73876953125 -3767.956298828125 Z" stroke="none"/>
        <path d="M -1520.128051757812 -3773.480712890625 C -1519.640869140625 -3777.65576171875 -1517.203002929688 -3855.740478515625 -1430.000366210938 -3855.740478515625 L -1430.000366210938 -3895.740234375 C -1517.203002929688 -3895.740234375 -1519.640869140625 -3973.824951171875 -1520.128051757812 -3978 L -1540.000244140625 -3975.74072265625 L -1559.878295898438 -3973.535400390625 C -1557.195922851562 -3949.355712890625 -1549.175659179688 -3919.395751953125 -1529.052612304688 -3895.740234375 L -1750.000366210938 -3895.740234375 L -1750.000366210938 -3855.740478515625 L -1529.05224609375 -3855.740478515625 C -1549.17529296875 -3832.084716796875 -1557.195922851562 -3802.12451171875 -1559.878295898438 -3777.9453125 L -1520.128051757812 -3773.480712890625 M -1511.349609375 -3762.431884765625 L -1570.91845703125 -3769.122314453125 L -1569.8173828125 -3779.0478515625 C -1567.7529296875 -3797.656494140625 -1562.298217773438 -3822.74365234375 -1548.475830078125 -3845.740478515625 L -1760.000366210938 -3845.740478515625 L -1760.000366210938 -3905.740234375 L -1548.47607421875 -3905.740234375 C -1562.298461914062 -3928.73681640625 -1567.7529296875 -3953.823974609375 -1569.8173828125 -3972.432861328125 L -1570.919921875 -3982.371826171875 L -1541.102905273438 -3985.6796875 L -1511.35107421875 -3989.062255859375 L -1510.083862304688 -3977.913818359375 C -1508.3740234375 -3956.21337890625 -1497.147827148438 -3905.740234375 -1430.000366210938 -3905.740234375 L -1420.000366210938 -3905.740234375 L -1420.000366210938 -3845.740478515625 L -1430.000366210938 -3845.740478515625 C -1497.147827148438 -3845.740478515625 -1508.3740234375 -3795.267333984375 -1510.083862304688 -3773.56689453125 L -1510.195434570312 -3772.321533203125 L -1511.349609375 -3762.431884765625 Z" stroke="none" fill="#fff"/>
      </g>
      <g id="Union_5-12" data-name="Union 5" transform="translate(1830 4000.74)" fill="#fff">
        <path d="M -1524.6103515625 -3779.015625 L -1554.290649414062 -3782.34912109375 C -1551.421508789062 -3803.043212890625 -1543.981567382812 -3830.473388671875 -1525.243774414062 -3852.500732421875 L -1518.234497070312 -3860.740478515625 L -1529.05224609375 -3860.740478515625 L -1745.000366210938 -3860.740478515625 L -1745.000366210938 -3890.740234375 L -1529.052612304688 -3890.740234375 L -1518.23486328125 -3890.740234375 L -1525.244140625 -3898.97998046875 C -1543.979248046875 -3921.00390625 -1551.419799804688 -3948.431396484375 -1554.289672851562 -3969.124755859375 L -1539.448852539062 -3970.771240234375 L -1539.442138671875 -3970.77197265625 L -1539.435424804688 -3970.772705078125 L -1524.609497070312 -3972.458251953125 C -1521.798461914062 -3949.13916015625 -1507.453247070312 -3893.278076171875 -1435.000366210938 -3890.823974609375 L -1435.000366210938 -3860.65673828125 C -1507.458129882812 -3858.20263671875 -1521.800537109375 -3802.33203125 -1524.6103515625 -3779.015625 Z" stroke="none"/>
        <path d="M -1528.878784179688 -3784.5263671875 C -1524.626586914062 -3810.615478515625 -1507.616943359375 -3860.900146484375 -1440.000366210938 -3865.41455078125 L -1440.000366210938 -3886.066162109375 C -1507.317749023438 -3890.561279296875 -1524.476440429688 -3940.4375 -1528.847900390625 -3966.9443359375 L -1548.556762695312 -3964.730224609375 C -1545.3076171875 -3945.473388671875 -1537.920288085938 -3921.597900390625 -1521.435791015625 -3902.2197265625 L -1507.417114257812 -3885.740234375 L -1740.000366210938 -3885.740234375 L -1740.000366210938 -3865.740478515625 L -1507.4169921875 -3865.740478515625 L -1521.435424804688 -3849.260986328125 C -1537.923706054688 -3829.878173828125 -1545.310913085938 -3805.995361328125 -1548.55908203125 -3786.73681640625 L -1528.878784179688 -3784.5263671875 M -1520.128051757812 -3773.480712890625 L -1559.878295898438 -3777.9453125 C -1557.195922851562 -3802.12451171875 -1549.17529296875 -3832.084716796875 -1529.05224609375 -3855.740478515625 L -1750.000366210938 -3855.740478515625 L -1750.000366210938 -3895.740234375 L -1529.052612304688 -3895.740234375 C -1549.175659179688 -3919.395751953125 -1557.195922851562 -3949.355712890625 -1559.878295898438 -3973.535400390625 L -1540.000244140625 -3975.74072265625 L -1520.128051757812 -3978 C -1519.640869140625 -3973.824951171875 -1517.203002929688 -3895.740234375 -1430.000366210938 -3895.740234375 L -1430.000366210938 -3855.740478515625 C -1517.203002929688 -3855.740478515625 -1519.640869140625 -3777.65576171875 -1520.128051757812 -3773.480712890625 Z" stroke="none" fill="#000"/>
      </g>
    </g>
  </g>
</svg>
