<svg xmlns="http://www.w3.org/2000/svg" xmlns:xlink="http://www.w3.org/1999/xlink" width="100" height="50" viewBox="0 0 100 50">
  <defs>
    <clipPath id="clip-sound-logo">
      <rect width="100" height="50"/>
    </clipPath>
  </defs>
  <g id="sound-logo" clip-path="url(#clip-sound-logo)">
    <path id="Union_1" data-name="Union 1" d="M0-3772a25,25,0,0,1,25-25,25,25,0,0,1,25,25,25,25,0,0,1-25,25A25,25,0,0,1,0-3772Zm16.048,21.193A22.854,22.854,0,0,0,25-3749a22.854,22.854,0,0,0,8.952-1.807,22.918,22.918,0,0,0,7.312-4.929,22.934,22.934,0,0,0,4.93-7.312A22.852,22.852,0,0,0,48-3772a22.853,22.853,0,0,0-1.806-8.952,22.94,22.94,0,0,0-4.93-7.312,22.922,22.922,0,0,0-7.312-4.929A22.854,22.854,0,0,0,25-3795a22.854,22.854,0,0,0-8.952,1.807,22.877,22.877,0,0,0-6.441,4.1A19.9,19.9,0,0,1,20-3792a20,20,0,0,1,20,20,20,20,0,0,1-20,20,19.9,19.9,0,0,1-10.393-2.909A22.882,22.882,0,0,0,16.048-3750.807ZM20-3754a17.88,17.88,0,0,0,12.728-5.272A17.882,17.882,0,0,0,38-3772a17.883,17.883,0,0,0-5.272-12.728A17.885,17.885,0,0,0,20-3790a17.879,17.879,0,0,0-12.395,4.946A14.93,14.93,0,0,1,15-3787a15,15,0,0,1,15,15,15,15,0,0,1-15,15,14.935,14.935,0,0,1-7.394-1.946A17.876,17.876,0,0,0,20-3754Zm-14.192-8.807A12.915,12.915,0,0,0,15-3759a12.919,12.919,0,0,0,9.193-3.807A12.919,12.919,0,0,0,28-3772a12.914,12.914,0,0,0-3.807-9.192A12.915,12.915,0,0,0,15-3785a12.911,12.911,0,0,0-9.192,3.808q-.1.1-.2.206A9.96,9.96,0,0,1,10-3782a10,10,0,0,1,10,10,10,10,0,0,1-10,10,9.963,9.963,0,0,1-4.4-1.015Q5.7-3762.91,5.808-3762.807ZM10-3764a8.009,8.009,0,0,0,8-8,8.009,8.009,0,0,0-8-8,7.993,7.993,0,0,0-6.394,3.2A5.009,5.009,0,0,1,5-3777a5,5,0,0,1,5,5,5,5,0,0,1-5,5,5,5,0,0,1-1.394-.2A7.992,7.992,0,0,0,10-3764Zm-5-5a3,3,0,0,0,3-3,3,3,0,0,0-3-3,3,3,0,0,0-3,3A3,3,0,0,0,5-3769Z" transform="translate(0 3797)" fill="#fff"/>
    <path id="Path_1243" data-name="Path 1243" d="M7.112.28c3.514,0,5.642-.728,5.642-3.08,0-2.38-1.946-2.66-5.46-2.912l-.588-.042c-2.744-.2-3.584-.448-3.584-1.61,0-1.022.91-1.414,3.318-1.414,2.576,0,3.962.476,3.962,2.03h1.932c-.056-2.31-1.96-3.43-5.74-3.43-3.486,0-5.4.84-5.4,2.814,0,2.016,1.372,2.8,5.264,3.038l.56.042c3,.2,3.808.364,3.808,1.54S9.73-1.12,7.112-1.12c-3.01,0-4.27-.616-4.27-2.2H.9C.966-.616,3.08.28,7.112.28ZM20.72.28c4,0,6.566-2.072,6.566-5.25,0-3.15-2.562-5.208-6.566-5.208S14.14-8.134,14.14-4.97,16.7.28,20.72.28ZM16.086-4.97c0-2.142,1.75-3.626,4.634-3.626s4.634,1.484,4.634,3.626S23.59-1.316,20.72-1.316,16.086-2.8,16.086-4.97ZM6.9,12.28c4.3,0,5.782-2.086,5.782-5.124V2.074H10.808V7.1c0,1.792-.728,3.584-3.906,3.584S2.982,8.906,2.982,7.1V2.074H1.106V7.156C1.106,10.194,2.59,12.28,6.9,12.28ZM14.7,12h1.876V3.768L24.08,12h2.744V2.074H24.962v8.232l-7.5-8.232H14.7Zm14.49,0h6.468a4.97,4.97,0,1,0,0-9.926H29.19Zm1.876-1.6V3.67H34.93c2.45,0,4.032,1.33,4.032,3.36S37.38,10.4,34.93,10.4Z" transform="translate(58 24)" fill="#fff"/>
  </g>
</svg>
