<svg xmlns="http://www.w3.org/2000/svg" xmlns:xlink="http://www.w3.org/1999/xlink" width="5125" height="250" viewBox="0 0 5125 250">
  <defs>
    <clipPath id="clip-sound-text-stroke">
      <rect width="5125" height="250"/>
    </clipPath>
  </defs>
  <g id="sound-text-stroke" clip-path="url(#clip-sound-text-stroke)">
    <path id="Path_1119" data-name="Path 1119" d="M14.7-156h93V0h70.5V-156h92.7v-59.4H14.7ZM442.2,6c92.1,0,151.2-44.7,151.2-113.7,0-68.4-59.1-112.8-151.2-112.8-91.5,0-150.9,44.4-150.9,112.8C291.3-38.7,350.7,6,442.2,6ZM364.8-107.7c0-32.4,30-53.7,77.4-53.7,47.7,0,78,21.3,78,53.7,0,32.7-30.3,54.3-78,54.3C395.1-53.4,364.8-75,364.8-107.7ZM670.8,0H772.5l60.9-158.7L894.3,0H995.7l71.4-215.4H996L943.5-52.8,879.9-215.4H786.6L723-52.8,670.5-215.4H599.4ZM1035,0h75l19.2-39.9h122.1L1270.2,0h75.3L1235.4-215.4h-90Zm118.2-90.6,36.9-77.1L1227-90.6ZM1369.5,0H1440V-60.9h98.1c19.2,0,24.6,5.7,24.6,24.9V0h70.5V-47.4c0-26.4-17.4-42.3-45-44.1,29.1-8.7,45.3-28.2,45.3-57.9,0-43.5-29.4-66-88.5-66H1369.5ZM1440-117.3V-159h88.2c18.9,0,31.8,3.3,31.8,20.7s-12.9,21-31.8,21ZM1668.9,0h153.9c62.4,0,107.7-45.6,107.7-108s-45.3-107.4-107.7-107.4H1668.9Zm70.5-59.4V-156h54.9c42.6,0,63.3,15.9,63.3,48,0,32.4-20.7,48.6-63.3,48.6ZM2093.4,6c79.5,0,126.9-17.4,126.9-71.7,0-55.5-47.4-63.3-120.9-69l-12.3-.9c-48.3-3.3-56.4-7.5-56.4-18.6,0-9.3,9.3-15.3,47.4-15.3,40.5,0,60,6,60,22.5h73.2c-2.7-47.7-48-73.5-132.6-73.5-74.1,0-121.2,22.2-121.2,66.3,0,46.2,36.3,66.6,118.8,71.4l10.5.6c52.2,3.3,60.3,6,60.3,19.2,0,11.4-9,18-56.7,18-46.8,0-63-10.5-63-26.1h-73.2C1956.9-14.7,2006.7,6,2093.4,6Zm273-162h93V0h70.5V-156h92.7v-59.4H2366.4ZM2652,0h70.5V-78.3h129V0H2922V-215.4h-70.5v78h-129v-78H2652Zm311.1,0h220.2V-53.1H3033.6V-83.7h143.7V-132H3033.6v-30.3h149.7v-53.1H2963.1ZM3336,0h70.5V-60.6h131.7V-120H3406.5v-36h149.7v-59.4H3336Zm384.9,6C3813,6,3852-33,3852-105.3V-215.4h-70.8v107.7c0,26.7-11.7,54.3-60.3,54.3s-60.6-27.3-60.6-54.3V-215.4h-70.5v110.1C3589.8-33,3628.5,6,3720.9,6Zm160.5-162h93V0h70.5V-156h92.7v-59.4H3881.4Zm417,162c92.1,0,131.1-39,131.1-111.3V-215.4h-70.8v107.7c0,26.7-11.7,54.3-60.3,54.3s-60.6-27.3-60.6-54.3V-215.4h-70.5v110.1C4167.3-33,4206,6,4298.4,6Zm163.2-6h70.5V-60.9h98.1c19.2,0,24.6,5.7,24.6,24.9V0h70.5V-47.4c0-26.4-17.4-42.3-45-44.1,29.1-8.7,45.3-28.2,45.3-57.9,0-43.5-29.4-66-88.5-66H4461.6Zm70.5-117.3V-159h88.2c18.9,0,31.8,3.3,31.8,20.7s-12.9,21-31.8,21ZM4761,0h220.2V-53.1H4831.5V-83.7h143.7V-132H4831.5v-30.3h149.7v-53.1H4761Z" transform="translate(64.3 232.5)" fill="none" stroke="#fff" stroke-width="3"/>
  </g>
</svg>
